<svg width="26" height="23" viewBox="0 0 26 23" fill="none" xmlns="http://www.w3.org/2000/svg">
<path d="M12.895 23C12.5278 23 12.1739 22.8667 11.898 22.6245C10.8562 21.7113 9.85168 20.8531 8.96546 20.0961L8.96094 20.0922C6.3627 17.8727 4.11902 15.9559 2.55791 14.0678C0.812824 11.957 0 9.95565 0 7.76929C0 5.64507 0.726642 3.68534 2.04593 2.25085C3.38096 0.799395 5.21282 0 7.20464 0C8.69334 0 10.0567 0.471787 11.2568 1.40215C11.8624 1.87176 12.4114 2.44651 12.895 3.11691C13.3788 2.44651 13.9276 1.87176 14.5334 1.40215C15.7335 0.471787 17.0969 0 18.5856 0C20.5772 0 22.4092 0.799395 23.7443 2.25085C25.0636 3.68534 25.79 5.64507 25.79 7.76929C25.79 9.95565 24.9774 11.957 23.2323 14.0676C21.6712 15.9559 19.4277 17.8725 16.8298 20.0918C15.9421 20.8499 14.936 21.7095 13.8918 22.6249C13.6161 22.8667 13.262 23 12.895 23ZM7.20464 1.51437C5.63979 1.51437 4.20225 2.1404 3.15646 3.27726C2.09512 4.43128 1.51054 6.02652 1.51054 7.76929C1.51054 9.60812 2.19232 11.2527 3.72097 13.1016C5.19845 14.8887 7.39609 16.766 9.94062 18.9397L9.94534 18.9437C10.8349 19.7036 11.8433 20.5651 12.8928 21.485C13.9487 20.5634 14.9586 19.7005 15.85 18.9393C18.3943 16.7656 20.5917 14.8887 22.0692 13.1016C23.5977 11.2527 24.2795 9.60812 24.2795 7.76929C24.2795 6.02652 23.6949 4.43128 22.6335 3.27726C21.5879 2.1404 20.1502 1.51437 18.5856 1.51437C17.4392 1.51437 16.3867 1.87965 15.4574 2.59996C14.6293 3.24215 14.0524 4.05397 13.7141 4.62201C13.5402 4.91412 13.234 5.08847 12.895 5.08847C12.556 5.08847 12.2498 4.91412 12.0759 4.62201C11.7378 4.05397 11.1609 3.24215 10.3326 2.59996C9.40326 1.87965 8.35078 1.51437 7.20464 1.51437Z" fill="#FDB137"/>
</svg>
