<svg width="17" height="32" viewBox="0 0 17 32" fill="none" xmlns="http://www.w3.org/2000/svg">
<path d="M16.9998 21.9319C17.0178 19.4002 16.0449 17.398 14.1042 15.9841C12.6054 14.8954 10.7864 14.3276 9.02709 13.7819C5.36218 12.6391 4.29903 12.0371 4.29903 10.2344C4.29903 8.22633 6.8361 7.51187 9.008 7.51187C10.5897 7.51187 12.4095 8.01772 13.5397 8.7674L15.7802 5.19818C14.3032 4.21327 12.2817 3.54147 10.2855 3.33295V0H6.15241V3.56667C2.47842 4.398 0.163992 6.86791 0.163992 10.2344C0.163992 12.592 1.11647 14.4618 2.98958 15.7806C4.41421 16.7874 6.15168 17.328 7.83005 17.8514C11.4248 18.969 12.8846 19.6501 12.868 21.9055L12.8679 21.9221C12.8679 23.8152 10.429 24.4881 8.33946 24.4881C6.36568 24.4881 4.21929 23.5984 3.00261 22.2754L0 25.1968C1.54081 26.8731 3.77944 28.0582 6.15232 28.5227V32H10.2855V28.5976C14.3681 27.9965 16.9957 25.4683 16.9998 21.9319Z" fill="#5F5F5F"/>
</svg>
