<svg width="67" height="68" viewBox="0 0 67 68" fill="none" xmlns="http://www.w3.org/2000/svg">
<mask id="path-1-inside-1" fill="white">
<path fill-rule="evenodd" clip-rule="evenodd" d="M26.6149 59.9938C26.6149 63.9272 29.8035 67.1158 33.7369 67.1158C37.6702 67.1158 40.8589 63.9272 40.8589 59.9938V41.0697H59.783C63.7164 41.0697 66.905 37.8811 66.905 33.9477C66.905 30.0143 63.7164 26.8257 59.7831 26.8257H40.8589V7.90145C40.8589 3.96808 37.6702 0.779449 33.7369 0.779449C29.8035 0.779449 26.6149 3.96807 26.6149 7.90144V26.8257H7.69068C3.75731 26.8257 0.56868 30.0143 0.56868 33.9477C0.56868 37.8811 3.7573 41.0697 7.69067 41.0697H26.6149V59.9938Z"/>
</mask>
<path fill-rule="evenodd" clip-rule="evenodd" d="M26.6149 59.9938C26.6149 63.9272 29.8035 67.1158 33.7369 67.1158C37.6702 67.1158 40.8589 63.9272 40.8589 59.9938V41.0697H59.783C63.7164 41.0697 66.905 37.8811 66.905 33.9477C66.905 30.0143 63.7164 26.8257 59.7831 26.8257H40.8589V7.90145C40.8589 3.96808 37.6702 0.779449 33.7369 0.779449C29.8035 0.779449 26.6149 3.96807 26.6149 7.90144V26.8257H7.69068C3.75731 26.8257 0.56868 30.0143 0.56868 33.9477C0.56868 37.8811 3.7573 41.0697 7.69067 41.0697H26.6149V59.9938Z" fill="#FDB137"/>
<path d="M40.8589 41.0697V40.0697H39.8589V41.0697H40.8589ZM40.8589 26.8257H39.8589V27.8257H40.8589V26.8257ZM26.6149 26.8257V27.8257H27.6149V26.8257H26.6149ZM26.6149 41.0697H27.6149V40.0697H26.6149V41.0697ZM33.7369 66.1158C30.3558 66.1158 27.6149 63.3749 27.6149 59.9938H25.6149C25.6149 64.4795 29.2512 68.1158 33.7369 68.1158V66.1158ZM39.8589 59.9938C39.8589 63.3749 37.118 66.1158 33.7369 66.1158V68.1158C38.2225 68.1158 41.8589 64.4795 41.8589 59.9938H39.8589ZM39.8589 41.0697V59.9938H41.8589V41.0697H39.8589ZM59.783 40.0697H40.8589V42.0697H59.783V40.0697ZM65.905 33.9477C65.905 37.3288 63.1641 40.0697 59.783 40.0697V42.0697C64.2687 42.0697 67.905 38.4333 67.905 33.9477H65.905ZM59.7831 27.8257C63.1641 27.8257 65.905 30.5666 65.905 33.9477H67.905C67.905 29.462 64.2687 25.8257 59.7831 25.8257V27.8257ZM40.8589 27.8257H59.7831V25.8257H40.8589V27.8257ZM39.8589 7.90145V26.8257H41.8589V7.90145H39.8589ZM33.7369 1.77945C37.118 1.77945 39.8589 4.52036 39.8589 7.90145H41.8589C41.8589 3.41579 38.2225 -0.220551 33.7369 -0.220551V1.77945ZM27.6149 7.90144C27.6149 4.52036 30.3558 1.77945 33.7369 1.77945V-0.220551C29.2512 -0.220551 25.6149 3.41578 25.6149 7.90144H27.6149ZM27.6149 26.8257V7.90144H25.6149V26.8257H27.6149ZM7.69068 27.8257H26.6149V25.8257H7.69068V27.8257ZM1.56868 33.9477C1.56868 30.5666 4.30959 27.8257 7.69068 27.8257V25.8257C3.20502 25.8257 -0.43132 29.462 -0.43132 33.9477H1.56868ZM7.69067 40.0697C4.30959 40.0697 1.56868 37.3288 1.56868 33.9477H-0.43132C-0.43132 38.4333 3.20501 42.0697 7.69067 42.0697V40.0697ZM26.6149 40.0697H7.69067V42.0697H26.6149V40.0697ZM27.6149 59.9938V41.0697H25.6149V59.9938H27.6149Z" fill="black" mask="url(#path-1-inside-1)"/>
</svg>
